<?xml version="1.0" encoding="UTF-8"?>
<svg version="1.1" xmlns="http://www.w3.org/2000/svg" width="512" height="512">
<path d="M0 0 C0.89859238 0.0059166 1.79718475 0.01183319 2.7230072 0.01792908 C14.87333271 0.28685262 26.79818579 2.47900514 38.75390625 4.50390625 C42.27981564 5.09111606 45.80637198 5.67344456 49.33457947 6.24668884 C51.50738936 6.60064014 53.67884772 6.96302082 55.84864807 7.3349762 C57.30814125 7.57533852 57.30814125 7.57533852 58.79711914 7.82055664 C59.64867081 7.96489639 60.50022247 8.10923615 61.37757874 8.25794983 C65.99526385 8.62407219 68.86359586 6.86879821 72.69140625 4.44140625 C80.09901944 -0.25610456 87.009119 -0.24231216 95.69140625 0.44140625 C100.43563679 1.64777844 104.39034293 3.11920653 107.85546875 6.640625 C112.17491472 9.38341369 115.61366445 8.32853692 120.50390625 7.50390625 C121.98963135 7.28480591 121.98963135 7.28480591 123.50537109 7.0612793 C128.86759493 6.25764169 134.21282881 5.35543727 139.55937195 4.45414734 C185.2091714 -3.22409854 185.2091714 -3.22409854 200.9765625 6.91015625 C207.58209892 11.94764944 212.22776719 20.2546779 213.69140625 28.44140625 C214.54281635 39.60797724 213.03652428 48.70065823 205.703125 57.40234375 C198.0916824 65.11724285 189.4330313 68.49732048 178.67207336 68.71887207 C166.05700525 68.78191547 153.92872335 66.98204624 141.50390625 64.94140625 C139.37456145 64.6028276 137.24500449 64.26558043 135.11523438 63.9296875 C129.97139246 63.11553182 124.83072649 62.28361351 119.69140625 61.44140625 C119.69140625 65.07140625 119.69140625 68.70140625 119.69140625 72.44140625 C120.60639893 72.52302002 121.5213916 72.60463379 122.46411133 72.6887207 C127.99213729 73.48681459 133.10935994 75.56293598 138.328125 77.484375 C139.44395462 77.89045486 140.55978424 78.29653473 141.70942688 78.71492004 C144.0665567 79.57486894 146.42242457 80.43828376 148.77709961 81.30493164 C152.34573431 82.6167127 155.91953149 83.91358606 159.49414062 85.20898438 C161.79329727 86.04988357 164.09213581 86.89165312 166.390625 87.734375 C167.44416672 88.11587204 168.49770844 88.49736908 169.58317566 88.89042664 C181.18728523 93.18633306 191.40412907 98.17904081 200.69140625 106.44140625 C201.37847656 107.034375 202.06554687 107.62734375 202.7734375 108.23828125 C212.41935027 117.14220073 218.88791246 128.97970799 222.69140625 141.44140625 C222.69140625 142.10140625 222.69140625 142.76140625 222.69140625 143.44140625 C223.82191406 143.4671875 224.95242188 143.49296875 226.1171875 143.51953125 C263.72597882 144.71056233 308.58600931 151.85136315 335.69140625 180.44140625 C343.31230294 188.95620534 345.33666922 196.31467886 345.01953125 207.765625 C343.9208976 220.07293768 336.01739632 227.80840414 327.1953125 235.6640625 C312.54305605 247.16185501 294.36512279 252.56104772 276.69140625 257.44140625 C276.75996826 258.1154248 276.82853027 258.78944336 276.89916992 259.48388672 C276.9891626 260.37479004 277.07915527 261.26569336 277.171875 262.18359375 C277.30565552 263.50399658 277.30565552 263.50399658 277.44213867 264.85107422 C278.72705758 278.20365958 275.67624367 292.46432127 267.69140625 303.44140625 C258.11419145 314.66258391 246.41272749 323.1484195 231.30859375 324.68359375 C229.37890625 324.69140625 229.37890625 324.69140625 226.69140625 324.44140625 C226.38203125 325.61703125 226.07265625 326.79265625 225.75390625 328.00390625 C222.12436726 338.80772092 215.04540006 348.55199812 207.79077148 357.22949219 C205.23704911 360.35832239 204.69140625 361.21247765 204.69140625 365.44140625 C205.95819273 366.97229252 205.95819273 366.97229252 207.81640625 368.31640625 C230.96402443 387.52400431 258.55075711 421.18213278 261.69140625 452.44140625 C262.81591799 468.83467903 259.35524979 482.86192834 248.50390625 495.56640625 C239.01757578 505.63002986 227.31414907 512.30533315 213.30436397 513.01195347 C209.2931998 513.11448806 205.2869421 513.10185532 201.27490234 513.07250977 C199.46653545 513.0776596 197.6581736 513.08494885 195.849823 513.0941925 C190.98257756 513.11256595 186.11588611 513.099863 181.24866438 513.08010221 C176.14165152 513.06362261 171.03467116 513.07254031 165.92764282 513.07762146 C157.36557226 513.08212795 148.80372123 513.06635228 140.24169922 513.03833008 C130.34274815 513.00618225 120.44419058 513.00633815 110.5452112 513.02354485 C101.00584563 513.0393948 91.46662438 513.03269288 81.92726517 513.01560783 C77.8722919 513.0087357 73.81743426 513.00977112 69.76246262 513.01715279 C64.99666464 513.02480219 60.23131645 513.01273379 55.46559525 512.98530388 C53.71603989 512.97840869 51.96644261 512.97833419 50.21688843 512.98551941 C47.83194358 512.99418734 45.44839591 512.97830594 43.06356812 512.95606995 C42.36883467 512.96431071 41.67410123 512.97255148 40.95831525 512.98104197 C37.63198752 512.92364754 35.92311529 512.61510295 33.23064613 510.59673977 C31.69140625 508.44140625 31.69140625 508.44140625 31.69140625 505.44140625 C27.07140625 505.44140625 22.45140625 505.44140625 17.69140625 505.44140625 C17.36140625 507.09140625 17.03140625 508.74140625 16.69140625 510.44140625 C13.36459721 512.65927894 12.28184958 512.70085218 8.40063477 512.73193359 C6.77732994 512.75107315 6.77732994 512.75107315 5.12123108 512.77059937 C3.94942795 512.77282501 2.77762482 512.77505066 1.5703125 512.77734375 C0.36003891 512.78400055 -0.85023468 512.79065735 -2.09718323 512.79751587 C-4.66527791 512.80765465 -7.233399 512.81233251 -9.80151367 512.81201172 C-13.69951034 512.81635435 -17.59634668 512.85257846 -21.49414062 512.890625 C-23.99348573 512.89649923 -26.4928362 512.90046456 -28.9921875 512.90234375 C-30.14577255 512.91671478 -31.2993576 512.93108582 -32.48789978 512.94589233 C-46.96255064 512.86569382 -59.09409982 507.51668992 -69.62109375 497.62890625 C-80.72908329 485.83944496 -84.87295738 471.68261448 -84.578125 455.84375 C-84.30648868 449.601467 -82.63923503 444.21533959 -80.30859375 438.44140625 C-80.04014648 437.77028809 -79.77169922 437.09916992 -79.49511719 436.40771484 C-69.21948889 411.08278597 -53.91067376 391.06685758 -34.80859375 371.81640625 C-34.30408691 371.307146 -33.79958008 370.79788574 -33.27978516 370.27319336 C-31.04462794 368.0482683 -28.94406194 366.19838504 -26.30859375 364.44140625 C-27.86387466 360.96632546 -29.95383517 358.2351988 -32.30859375 355.25390625 C-36.12338187 350.22110636 -39.52107729 345.05780236 -42.74609375 339.62890625 C-43.17083984 338.92419189 -43.59558594 338.21947754 -44.03320312 337.4934082 C-46.53312202 333.20992439 -48.15403085 329.26785773 -49.30859375 324.44140625 C-50.19546875 324.52390625 -51.08234375 324.60640625 -51.99609375 324.69140625 C-64.35815932 324.66633107 -76.35438521 317.93633322 -85.171875 309.734375 C-96.95934279 297.08493516 -99.83605805 282.17105404 -99.58203125 265.5390625 C-99.08360286 252.15798736 -93.19696472 240.83588331 -83.62109375 231.62890625 C-77.62760409 226.50870113 -70.77525681 222.93029394 -63.30859375 220.44140625 C-62.23017637 217.43153354 -62.23017637 217.43153354 -61.48681641 213.6652832 C-61.32859909 212.95610748 -61.17038177 212.24693176 -61.00737 211.51626587 C-60.66430838 209.97010744 -60.32742171 208.42256927 -59.9958992 206.87389565 C-59.4684124 204.40986334 -58.92527114 201.94974906 -58.37802124 199.49003601 C-57.41216767 195.13626523 -56.46059896 190.7795133 -55.51348877 186.42163086 C-54.00733631 179.49279057 -52.4887301 172.56680152 -50.95325851 165.64439964 C-50.42422515 163.24353514 -49.90669918 160.84039775 -49.39004517 158.43684387 C-44.18418401 134.61001935 -35.0468375 113.79142005 -14.40234375 99.41796875 C-4.50590982 93.34078966 6.2762453 89.60663672 17.17138672 85.71240234 C21.01384172 84.3249824 24.83947984 82.89666258 28.6640625 81.4609375 C30.69494141 80.70223392 32.72616503 79.94446259 34.75756836 79.18716431 C36.07663682 78.69440908 37.39501182 78.19979304 38.71264648 77.70321655 C40.56891082 77.00498678 42.42893605 76.31678101 44.2890625 75.62890625 C45.35648682 75.23058594 46.42391113 74.83226563 47.52368164 74.421875 C50.90838554 73.37424719 54.17709528 72.85325903 57.69140625 72.44140625 C57.69140625 68.81140625 57.69140625 65.18140625 57.69140625 61.44140625 C56.40266602 61.65345703 55.11392578 61.86550781 53.78613281 62.08398438 C48.90549219 62.88267431 44.02166173 63.6602299 39.13671875 64.43212891 C37.04142324 64.76608264 34.94697636 65.10541485 32.85351562 65.45068359 C-8.23958014 72.21408659 -8.23958014 72.21408659 -23.62109375 61.69140625 C-31.18572598 55.50638932 -35.62198497 48.1125311 -36.625 38.3671875 C-37.00042683 28.13377878 -34.59195227 19.2391807 -28.0703125 11.22265625 C-20.3035152 3.36975255 -10.86822226 -0.12754814 0 0 Z " fill="#010201" transform="translate(133.30859375,-0.44140625)"/>
<path d="M0 0 C25.95765843 14.78088195 42.92268213 43.43465311 50.69140625 71.42578125 C50.98389841 72.75453134 51.25213729 74.08871698 51.50390625 75.42578125 C51.68824219 76.36808594 51.87257813 77.31039062 52.0625 78.28125 C54.46895615 92.43785066 54.24565259 107.19635197 52.50390625 121.42578125 C51.77438248 121.35554245 51.0448587 121.28530365 50.29322815 121.2129364 C43.085635 120.55974433 35.95381297 120.26586008 28.71875 120.2578125 C27.65523819 120.2544841 26.59172638 120.2511557 25.49598694 120.24772644 C23.27345202 120.24270832 21.05090971 120.24031651 18.82836914 120.24047852 C15.41866018 120.23826649 12.00926238 120.21998814 8.59960938 120.20117188 C6.43099068 120.198242 4.26237047 120.19625449 2.09375 120.1953125 C1.07506332 120.18812698 0.05637665 120.18094147 -0.99317932 120.17353821 C-1.93523727 120.17661484 -2.87729523 120.17969147 -3.84790039 120.18286133 C-4.67552383 120.18143631 -5.50314728 120.18001129 -6.35585022 120.17854309 C-8.79427697 120.29555933 -8.79427697 120.29555933 -11.49609375 122.42578125 C-12.15533934 127.45996712 -12.15533934 127.45996712 -10.49511719 132.02148438 C-7.31776379 134.25354797 -3.86173128 133.86709336 -0.11328125 133.8671875 C0.72470001 133.8795343 1.56268127 133.8918811 2.42605591 133.90460205 C4.22475782 133.93042004 6.02355629 133.95009627 7.8223877 133.96426392 C12.52675142 134.00452243 17.23000626 134.09922357 21.93359375 134.19140625 C23.32312256 134.21742668 23.32312256 134.21742668 24.74072266 134.24397278 C52.93502264 134.81029736 81.17983804 138.44605526 108.50390625 145.42578125 C109.550625 145.69245605 110.59734375 145.95913086 111.67578125 146.23388672 C118.29473303 147.92881676 124.90351372 149.66000708 131.50390625 151.42578125 C133.77155985 160.05376835 133.86065875 168.63032353 133.81640625 177.48828125 C133.81491577 178.2215564 133.81342529 178.95483154 133.81188965 179.71032715 C133.77220186 190.5510162 133.2986284 200.89459649 130.50390625 211.42578125 C130.06884766 213.09253906 130.06884766 213.09253906 129.625 214.79296875 C128.69114906 218.05167872 127.63710441 221.231168 126.50390625 224.42578125 C126.09527344 225.59367188 125.68664062 226.7615625 125.265625 227.96484375 C119.79130227 242.61443979 111.93382612 255.75337093 101.50390625 267.42578125 C100.67375 268.39902344 99.84359375 269.37226563 98.98828125 270.375 C77.29641746 295.40963665 44.50712444 311.78507811 11.50390625 314.42578125 C-5.18151258 315.34411094 -21.36280137 315.01643951 -37.49609375 310.42578125 C-38.56029541 310.12824951 -38.56029541 310.12824951 -39.64599609 309.82470703 C-57.47431648 304.64315819 -74.47297208 295.5691279 -88.49609375 283.42578125 C-89.00430664 282.99297852 -89.51251953 282.56017578 -90.03613281 282.11425781 C-111.85017811 263.43794261 -126.19232444 239.03556936 -133.49609375 211.42578125 C-133.76510498 210.43650635 -133.76510498 210.43650635 -134.03955078 209.42724609 C-138.3992637 192.61615843 -138.2663917 171.47376866 -135.49609375 154.42578125 C-133.49609375 151.42578125 -133.49609375 151.42578125 -130.70849609 150.57763672 C-129.5530127 150.35994629 -128.3975293 150.14225586 -127.20703125 149.91796875 C-125.94084961 149.67014648 -124.67466797 149.42232422 -123.37011719 149.16699219 C-122.09168945 148.92239258 -120.81326172 148.67779297 -119.49609375 148.42578125 C-117.29948768 147.95521714 -115.10411349 147.47885706 -112.91015625 146.99609375 C-89.48302383 141.97292625 -65.8107345 137.39951955 -41.84057617 136.14550781 C-35.1465087 135.8072346 -35.1465087 135.8072346 -29.49609375 132.42578125 C-28.75007813 130.50048176 -28.75007813 130.50048176 -28.93359375 128.42578125 C-28.93230469 127.74515625 -28.93101562 127.06453125 -28.9296875 126.36328125 C-29.73770308 123.59931073 -31.06507799 122.90347795 -33.49609375 121.42578125 C-35.9120713 121.10512955 -35.9120713 121.10512955 -38.48046875 121.3515625 C-39.41503906 121.40634766 -40.34960938 121.46113281 -41.3125 121.51757812 C-42.28058594 121.59041016 -43.24867188 121.66324219 -44.24609375 121.73828125 C-45.72142578 121.83012695 -45.72142578 121.83012695 -47.2265625 121.92382812 C-49.65104959 122.07682974 -52.07357402 122.24463159 -54.49609375 122.42578125 C-56.35949125 115.3062665 -56.84621411 108.70935932 -56.80859375 101.36328125 C-56.80339722 99.71162964 -56.80339722 99.71162964 -56.7980957 98.02661133 C-56.68039792 89.14335485 -55.61423159 81.04610968 -53.49609375 72.42578125 C-53.29113281 71.41128906 -53.08617187 70.39679688 -52.875 69.3515625 C-46.82933549 41.2260798 -27.29837719 17.60749556 -4.8984375 0.48828125 C-2.49609375 -0.57421875 -2.49609375 -0.57421875 0 0 Z " fill="#FEDCCE" transform="translate(223.49609375,84.57421875)"/>
<path d="M0 0 C2.85167264 1.03250216 4.22714192 2.20409545 6.3671875 4.33984375 C9.19686596 7.06418731 11.88020859 9.2012899 15.33984375 11.0234375 C25.54032163 16.52651963 25.54032163 16.52651963 27.27880859 20.86572266 C28.21752084 25.41264238 28.20904469 30.0087675 28.33154297 34.63476562 C29.36796384 49.26436599 38.9792288 63.27583275 49.4921875 72.90234375 C68.3307444 87.57984393 90.02615934 91.91349701 113.4921875 89.90234375 C133.01607497 87.08913385 151.48738097 77.83975932 163.4921875 61.90234375 C170.40245124 52.31988443 174.39049388 41.58605581 174.93457031 29.83544922 C175.43024516 20.05292334 175.43024516 20.05292334 178.92578125 16.265625 C182.02994013 14.25286466 185.20252513 12.59066807 188.4921875 10.90234375 C190.3620297 9.51266483 192.19852804 8.07655256 193.9921875 6.58984375 C195.4905538 5.35868611 196.9904107 4.12933892 198.4921875 2.90234375 C199.1625 2.31066406 199.8328125 1.71898437 200.5234375 1.109375 C202.4921875 -0.09765625 202.4921875 -0.09765625 204.38671875 -0.09765625 C207.46357538 1.36370794 209.74361984 3.57378403 212.1796875 5.90234375 C212.70933105 6.40072754 213.23897461 6.89911133 213.78466797 7.41259766 C214.85891728 8.42783297 215.92959727 9.44685909 216.99658203 10.46972656 C218.29675196 11.71513909 219.61014031 12.94672343 220.92578125 14.17578125 C236.11987986 28.7469489 247.39521767 47.58402986 255.4921875 66.90234375 C255.76595215 67.52447754 256.0397168 68.14661133 256.32177734 68.78759766 C259.99190157 77.6357266 260.54306852 88.95443397 257.16796875 98.00390625 C252.76962148 107.91992129 246.85392508 114.14443205 237.21484375 118.859375 C231.03278254 121.22753905 225.43735159 122.15228514 218.83073425 122.16062927 C218.10322678 122.16430498 217.37571931 122.16798068 216.62616616 122.17176777 C214.21188574 122.18167139 211.7978391 122.17761247 209.38354492 122.17358398 C207.6434098 122.17797518 205.90327679 122.18327877 204.16314697 122.18942261 C200.42820642 122.20088864 196.69332235 122.20637949 192.95836449 122.207304 C187.05497984 122.20924893 181.15171185 122.22732269 175.24836731 122.24806213 C160.59306032 122.29718084 145.93772193 122.32817927 131.28234863 122.34936523 C119.87748411 122.36587238 108.4727203 122.38862015 97.06792337 122.43238598 C91.19628084 122.45420094 85.32482949 122.46221679 79.4531492 122.45999324 C75.80811551 122.4616557 72.16320766 122.47567655 68.51821899 122.49320602 C66.82468388 122.49882148 65.13112285 122.49927617 63.43758583 122.49426842 C61.13100802 122.48816118 58.82523048 122.50029531 56.51872253 122.51707458 C55.2266196 122.51908591 53.93451666 122.52109724 52.60325909 122.52316952 C49.55288846 122.6468381 49.55288846 122.6468381 47.67802906 124.17642307 C46.2261789 126.20450771 46.2261789 126.20450771 44.4921875 129.90234375 C39.8721875 129.90234375 35.2521875 129.90234375 30.4921875 129.90234375 C29.0071875 126.93234375 29.0071875 126.93234375 27.4921875 123.90234375 C24.62468778 122.94651051 22.79146797 122.76784228 19.81225586 122.74462891 C18.38948586 122.72923569 18.38948586 122.72923569 16.93797302 122.71353149 C15.40053185 122.7025795 15.40053185 122.7025795 13.83203125 122.69140625 C11.65428958 122.66332024 9.47655532 122.63465568 7.29882812 122.60546875 C3.87150416 122.56434967 0.44431572 122.52745677 -2.9831543 122.50097656 C-6.29504907 122.47317975 -9.60631894 122.42729031 -12.91796875 122.37890625 C-13.92875992 122.37565338 -14.93955109 122.37240051 -15.98097229 122.36904907 C-27.59185839 122.17086688 -36.84330809 119.01706007 -45.44921875 111.12109375 C-53.48295911 102.65356611 -56.32989732 93.79150602 -56.23803711 82.30444336 C-55.79865241 73.2584445 -52.55222614 65.87812236 -48.5078125 57.90234375 C-47.89925328 56.63695251 -47.29116896 55.37133276 -46.68359375 54.10546875 C-39.26767143 39.10619956 -29.19770802 25.80871882 -17.5078125 13.90234375 C-17.01829102 13.39912598 -16.52876953 12.8959082 -16.02441406 12.37744141 C-3.82566671 -0.14897456 -3.82566671 -0.14897456 0 0 Z " fill="#A3E6FE" transform="translate(120.5078125,375.09765625)"/>
<path d="M0 0 C2.85167264 1.03250216 4.22714192 2.20409545 6.3671875 4.33984375 C9.19686596 7.06418731 11.88020859 9.2012899 15.33984375 11.0234375 C25.54032163 16.52651963 25.54032163 16.52651963 27.27880859 20.86572266 C28.21752084 25.41264238 28.20904469 30.0087675 28.33154297 34.63476562 C29.36796384 49.26436599 38.9792288 63.27583275 49.4921875 72.90234375 C57.10705874 78.83524374 67.89246769 86.38664848 77.6796875 87.05078125 C79.4921875 87.90234375 79.4921875 87.90234375 80.765625 91.19140625 C81.14749251 92.63290966 81.51368407 94.07862355 81.8671875 95.52734375 C83.84626136 102.96609554 86.37056328 109.93334717 89.35546875 117.0234375 C90.4921875 119.90234375 90.4921875 119.90234375 90.4921875 121.90234375 C88.6527356 121.92421753 88.6527356 121.92421753 86.77612305 121.9465332 C82.23041484 122.00446458 77.68520469 122.08169756 73.13989258 122.16479492 C71.17187579 122.19806861 69.20376301 122.2260929 67.2355957 122.2487793 C64.40794938 122.28228053 61.58118468 122.33459338 58.75390625 122.390625 C57.87256516 122.39701492 56.99122406 122.40340485 56.08317566 122.4099884 C55.26255142 122.42978256 54.44192719 122.44957672 53.59643555 122.4699707 C52.87473679 122.48107376 52.15303802 122.49217682 51.4094696 122.50361633 C48.89707613 123.02610604 48.07651481 123.90761233 46.4921875 125.90234375 C45.8321875 127.22234375 45.1721875 128.54234375 44.4921875 129.90234375 C39.8721875 129.90234375 35.2521875 129.90234375 30.4921875 129.90234375 C29.0071875 126.93234375 29.0071875 126.93234375 27.4921875 123.90234375 C24.62468778 122.94651051 22.79146797 122.76784228 19.81225586 122.74462891 C18.38948586 122.72923569 18.38948586 122.72923569 16.93797302 122.71353149 C15.40053185 122.7025795 15.40053185 122.7025795 13.83203125 122.69140625 C11.65428958 122.66332024 9.47655532 122.63465568 7.29882812 122.60546875 C3.87150416 122.56434967 0.44431572 122.52745677 -2.9831543 122.50097656 C-6.29504907 122.47317975 -9.60631894 122.42729031 -12.91796875 122.37890625 C-13.92875992 122.37565338 -14.93955109 122.37240051 -15.98097229 122.36904907 C-27.59185839 122.17086688 -36.84330809 119.01706007 -45.44921875 111.12109375 C-53.48295911 102.65356611 -56.32989732 93.79150602 -56.23803711 82.30444336 C-55.79865241 73.2584445 -52.55222614 65.87812236 -48.5078125 57.90234375 C-47.89925328 56.63695251 -47.29116896 55.37133276 -46.68359375 54.10546875 C-39.26767143 39.10619956 -29.19770802 25.80871882 -17.5078125 13.90234375 C-17.01829102 13.39912598 -16.52876953 12.8959082 -16.02441406 12.37744141 C-3.82566671 -0.14897456 -3.82566671 -0.14897456 0 0 Z " fill="#59D5FE" transform="translate(120.5078125,375.09765625)"/>
<path d="M0 0 C25.95765843 14.78088195 42.92268213 43.43465311 50.69140625 71.42578125 C50.98389841 72.75453134 51.25213729 74.08871698 51.50390625 75.42578125 C51.68824219 76.36808594 51.87257813 77.31039062 52.0625 78.28125 C54.46895615 92.43785066 54.24565259 107.19635197 52.50390625 121.42578125 C51.77438248 121.35554245 51.0448587 121.28530365 50.29322815 121.2129364 C43.085635 120.55974433 35.95381297 120.26586008 28.71875 120.2578125 C27.65523819 120.2544841 26.59172638 120.2511557 25.49598694 120.24772644 C23.27345202 120.24270832 21.05090971 120.24031651 18.82836914 120.24047852 C15.41866018 120.23826649 12.00926238 120.21998814 8.59960938 120.20117188 C6.43099068 120.198242 4.26237047 120.19625449 2.09375 120.1953125 C1.07506332 120.18812698 0.05637665 120.18094147 -0.99317932 120.17353821 C-1.93523727 120.17661484 -2.87729523 120.17969147 -3.84790039 120.18286133 C-4.67552383 120.18143631 -5.50314728 120.18001129 -6.35585022 120.17854309 C-8.79427697 120.29555933 -8.79427697 120.29555933 -11.49609375 122.42578125 C-11.82609375 124.40578125 -12.15609375 126.38578125 -12.49609375 128.42578125 C-17.44609375 128.09578125 -22.39609375 127.76578125 -27.49609375 127.42578125 C-27.82609375 128.41578125 -28.15609375 129.40578125 -28.49609375 130.42578125 C-28.76421875 129.31203125 -29.03234375 128.19828125 -29.30859375 127.05078125 C-30.15418394 123.20737174 -30.15418394 123.20737174 -33.49609375 121.42578125 C-35.82280164 121.24159337 -35.82280164 121.24159337 -38.3828125 121.44921875 C-39.32060547 121.50078125 -40.25839844 121.55234375 -41.22460938 121.60546875 C-42.20107422 121.66992188 -43.17753906 121.734375 -44.18359375 121.80078125 C-45.17166016 121.8575 -46.15972656 121.91421875 -47.17773438 121.97265625 C-49.6179226 122.11411644 -52.05707966 122.26552399 -54.49609375 122.42578125 C-56.35949125 115.3062665 -56.84621411 108.70935932 -56.80859375 101.36328125 C-56.80512939 100.26218018 -56.80166504 99.1610791 -56.7980957 98.02661133 C-56.68039792 89.14335485 -55.61423159 81.04610968 -53.49609375 72.42578125 C-53.18865234 70.90404297 -53.18865234 70.90404297 -52.875 69.3515625 C-46.82933549 41.2260798 -27.29837719 17.60749556 -4.8984375 0.48828125 C-2.49609375 -0.57421875 -2.49609375 -0.57421875 0 0 Z " fill="#FBCA88" transform="translate(223.49609375,84.57421875)"/>
<path d="M0 0 C-0.61875 1.7634375 -0.61875 1.7634375 -1.25 3.5625 C-5.31815941 15.86292537 -7.9384213 28.24007729 -10 41 C-8.84951172 40.50886719 -8.84951172 40.50886719 -7.67578125 40.0078125 C-4.90281247 38.96339506 -2.93226553 38.83244197 0 39 C-0.0825 37.845 -0.165 36.69 -0.25 35.5 C-0.2196155 29.76745709 1.74406526 25.41630925 5.6484375 21.234375 C11.15211309 16.28347032 15.87412855 14.43337826 23.30859375 14.6328125 C30.11529274 15.56144778 35.45896527 18.67786069 39.625 24.125 C42.64742142 29.25109542 43.08599624 34.19228098 42 40 C40.4375 42.75 40.4375 42.75 38 44 C34.57607819 43.9399312 32.12543019 43.69854288 29.1875 41.875 C27.44299457 39.12051775 26.85329106 36.12873387 26 33 C25.34 32.34 24.68 31.68 24 31 C20.40320934 31.32326553 20.40320934 31.32326553 17 32 C16.34 34.64 15.68 37.28 15 40 C15.825 40.20625 16.65 40.4125 17.5 40.625 C23.61607509 43.02774379 29.36282255 46.86014367 32.37890625 52.87890625 C34.05570056 58.605317 33.70836542 64.65353956 32 70.3125 C26.5447753 77.64295819 20.00752139 82.14485292 11 84 C4.60596788 84.44847921 -1.76601372 84.68506744 -8 83 C-1.97798925 111.57559907 8.84883162 136.3600816 26 160 C25.34 160.33 24.68 160.66 24 161 C21.30932341 159.81731843 18.77136844 158.5747856 16.1875 157.1875 C15.42284424 156.77806152 14.65818848 156.36862305 13.87036133 155.94677734 C6.64854599 151.97443971 0.25476368 147.3463623 -6 142 C-6.77102051 141.34644531 -6.77102051 141.34644531 -7.55761719 140.6796875 C-29.36049409 122.00320936 -43.69850257 97.60119993 -51 70 C-51.26901123 69.0107251 -51.26901123 69.0107251 -51.54345703 68.00146484 C-55.90316995 51.19037718 -55.77029795 30.04798741 -53 13 C-51 10 -51 10 -48.26953125 9.16064453 C-46.55830078 8.83749268 -46.55830078 8.83749268 -44.8125 8.5078125 C-43.55050781 8.26063477 -42.28851563 8.01345703 -40.98828125 7.75878906 C-40.32908691 7.63427368 -39.66989258 7.5097583 -38.99072266 7.38146973 C-35.81822572 6.77354399 -32.66038289 6.09733907 -29.5 5.4296875 C-27.00010745 4.91094025 -24.50010713 4.39271209 -22 3.875 C-20.09541016 3.47861328 -20.09541016 3.47861328 -18.15234375 3.07421875 C-16.92644531 2.82027344 -15.70054688 2.56632813 -14.4375 2.3046875 C-13.34308594 2.07765137 -12.24867188 1.85061523 -11.12109375 1.61669922 C-2.93903405 0 -2.93903405 0 0 0 Z " fill="#FDC9BD" transform="translate(141,226)"/>
<path d="M0 0 C-0.58265625 0.58523437 -1.1653125 1.17046875 -1.765625 1.7734375 C-16.88455242 17.60552188 -28.01223949 36.926571 -34 58 C-34.28617187 59.00675781 -34.57234375 60.01351562 -34.8671875 61.05078125 C-37.41083426 70.58340029 -38.15934972 79.8850992 -38.09765625 89.7265625 C-38.0962413 90.60025482 -38.09482635 91.47394714 -38.09336853 92.37411499 C-38.08783674 95.12444703 -38.07529774 97.87469318 -38.0625 100.625 C-38.05747616 102.50650923 -38.05291481 104.38801975 -38.04882812 106.26953125 C-38.03788979 110.84638652 -38.02067362 115.42317877 -38 120 C-46.48851917 122.188191 -46.48851917 122.188191 -50.14453125 122.5703125 C-63.78723049 124.18499951 -77.00459475 127.14191652 -90.35473633 130.30712891 C-91.1016423 130.48344345 -91.84854828 130.659758 -92.61808777 130.84141541 C-94.03298996 131.17644243 -95.44711072 131.51479242 -96.86030579 131.85694885 C-99.65706544 132.5217726 -102.11218708 133 -105 133 C-104.5572577 124.35922719 -103.09401044 116.36518309 -100.9375 108 C-100.29984415 105.46174852 -99.66481532 102.92304091 -99.03515625 100.3828125 C-98.78759583 99.38702682 -98.78759583 99.38702682 -98.53503418 98.37112427 C-97.23769087 93.09799355 -96.06728468 87.80267493 -94.93359375 82.4921875 C-94.76151901 81.6917804 -94.58944427 80.89137329 -94.41215515 80.06671143 C-93.7320265 76.8996919 -93.05210933 73.73288923 -92.39718628 70.56054688 C-88.50302498 51.71450341 -81.31958789 34.34293744 -64.75 23.375 C-53.64391797 16.30435771 -40.88898522 12.21428777 -28.59106445 7.73193359 C-25.54159887 6.61736068 -22.49842818 5.48661676 -19.45507812 4.35546875 C-17.5133852 3.64483696 -15.5713402 2.93516628 -13.62890625 2.2265625 C-12.7216127 1.88710602 -11.81431915 1.54764954 -10.87953186 1.19790649 C-10.03442551 0.89363739 -9.18931915 0.58936829 -8.31860352 0.27587891 C-7.57900894 0.00450104 -6.83941437 -0.26687683 -6.07740784 -0.54647827 C-3.70618649 -1.06414283 -2.27881091 -0.76361661 0 0 Z " fill="#35D199" transform="translate(192,89)"/>
<path d="M0 0 C6.77711861 1.3562854 13.07900751 3.30451616 19.5546875 5.703125 C20.53688263 6.06339783 21.51907776 6.42367065 22.53103638 6.79486084 C24.5977895 7.55510956 26.66343936 8.31836362 28.72802734 9.08447266 C31.85526624 10.24269131 34.9878381 11.38551829 38.12109375 12.52734375 C59.41826584 20.35406379 76.35314585 29.07078096 86.53979492 50.47241211 C88.03132484 54.07567508 89.02066502 57.54654136 89.93359375 61.3359375 C90.10129776 62.0269455 90.26900177 62.71795349 90.44178772 63.42990112 C90.96952663 65.61804928 91.4866431 67.80843584 92 70 C92.24641235 71.05036438 92.24641235 71.05036438 92.49780273 72.12194824 C93.66491169 77.11832485 94.8042311 82.12085604 95.9375 87.125 C96.46040492 89.42961063 96.98353911 91.73416909 97.50674438 94.03871155 C97.85151729 95.55748883 98.19606382 97.07631751 98.54037476 98.59519958 C99.55181368 103.05089759 100.58170827 107.50175378 101.62890625 111.94921875 C101.86424072 112.95645996 102.0995752 113.96370117 102.34204102 115.00146484 C102.76572787 116.81160601 103.19422604 118.6206312 103.62866211 120.42822266 C104.62494084 124.71365751 105.22859356 128.56385619 105 133 C98.15611614 131.70780507 91.39017128 130.16318304 84.6184082 128.53759766 C71.14463537 125.30679627 57.67398363 122.50126281 43.97583008 120.36962891 C42 120 42 120 39 119 C38.970271 117.39112915 38.970271 117.39112915 38.93994141 115.74975586 C38.86274474 111.69584184 38.77422423 107.64223486 38.68261719 103.58862305 C38.64479074 101.84812568 38.6098658 100.10756234 38.578125 98.36694336 C37.91198918 62.26030017 27.38195675 32.69246285 3.50488281 5.15039062 C0 1.09732727 0 1.09732727 0 0 Z " fill="#7EDEB5" transform="translate(252,88)"/>
<path d="M0 0 C30.11415373 -1.09506014 71.24848708 6.87359514 94 28 C102.68894602 36.88946015 102.68894602 36.88946015 103.375 43.75 C103.12093329 51.3720014 98.90389684 56.90898819 93.51171875 61.9921875 C80.79966717 72.1539208 64.48880767 77.75272805 49 82 C48.25105469 82.26941406 47.50210938 82.53882813 46.73046875 82.81640625 C44.75 83.375 44.75 83.375 41 83 C38.45625728 80.73137839 36.36907756 78.27753334 34.2109375 75.640625 C29.70334864 70.25700297 25.0091424 67.33995012 18.4453125 65.0078125 C13.45235272 62.75213726 13.45235272 62.75213726 11.65869141 59.76977539 C10.78200072 56.91611239 10.22848279 54.13436111 9.75 51.1875 C9.30477383 48.95701402 8.85945657 46.72654621 8.4140625 44.49609375 C8.19266602 43.29839355 7.97126953 42.10069336 7.74316406 40.86669922 C6.94093938 36.69270627 6.03026434 32.55375653 5.0859375 28.41015625 C4.75672912 26.95746235 4.42762715 25.50474434 4.09863281 24.05200195 C3.93705688 23.33887848 3.77548096 22.625755 3.60900879 21.89102173 C2.83477889 18.4662016 2.0688333 15.03990978 1.3203125 11.609375 C1.06523926 10.45405273 0.81016602 9.29873047 0.54736328 8.10839844 C0.05622698 5.31930506 -0.11157574 2.82174383 0 0 Z " fill="#35D29A" transform="translate(360,159)"/>
<path d="M0 0 C1.216875 0.4125 2.43375 0.825 3.6875 1.25 C4.93853516 1.66185547 4.93853516 1.66185547 6.21484375 2.08203125 C8.06535763 2.69194817 9.91182484 3.31428856 11.75390625 3.94921875 C46.1349992 15.29004863 82.27505482 13.32398698 115.95068359 0.68676758 C118 0 118 0 120 0 C118.62472595 13.75274046 112.24859999 25.77786386 102 35 C93.70165102 41.77001996 85.17904809 45.14937716 75 48 C74.37158203 48.17958252 73.74316406 48.35916504 73.09570312 48.54418945 C55.88191698 52.28814783 37.73413681 47.99290419 23 39 C9.59438369 29.03911801 2.50813251 16.31761504 0 0 Z " fill="#FCC9BC" transform="translate(162,402)"/>
<path d="M0 0 C0 2.76133147 -0.34713296 4.64650269 -1.05859375 7.28125 C-1.27966797 8.12429687 -1.50074219 8.96734375 -1.72851562 9.8359375 C-2.19314833 11.5818301 -2.66175641 13.32667068 -3.13476562 15.0703125 C-11.3108705 46.44759614 -5.96483898 80.82911231 7 110 C20.86 110.495 20.86 110.495 35 111 C35 111.33 35 111.66 35 112 C34.10692139 112.01981934 33.21384277 112.03963867 32.29370117 112.06005859 C28.97799292 112.13818698 25.66273838 112.22487971 22.34741211 112.31738281 C20.91292932 112.35564866 19.47835135 112.39050581 18.04370117 112.421875 C15.98061122 112.46757862 13.91817505 112.52556193 11.85546875 112.5859375 C10.61434326 112.6173584 9.37321777 112.6487793 8.09448242 112.68115234 C4.83363899 112.77399209 4.83363899 112.77399209 2 115 C1.67 116.98 1.34 118.96 1 121 C-3.95 120.67 -8.9 120.34 -14 120 C-14.33 120.99 -14.66 121.98 -15 123 C-15.268125 121.88625 -15.53625 120.7725 -15.8125 119.625 C-16.65809019 115.78159049 -16.65809019 115.78159049 -20 114 C-22.32670789 113.81581212 -22.32670789 113.81581212 -24.88671875 114.0234375 C-25.82451172 114.075 -26.76230469 114.1265625 -27.72851562 114.1796875 C-28.70498047 114.24414062 -29.68144531 114.30859375 -30.6875 114.375 C-31.67556641 114.43171875 -32.66363281 114.4884375 -33.68164062 114.546875 C-36.12182885 114.68833519 -38.56098591 114.83974274 -41 115 C-42.8633975 107.88048525 -43.35012036 101.28357807 -43.3125 93.9375 C-43.30903564 92.83639893 -43.30557129 91.73529785 -43.30200195 90.60083008 C-43.18430417 81.7175736 -42.11813784 73.62032843 -40 65 C-39.79503906 63.98550781 -39.59007812 62.97101563 -39.37890625 61.92578125 C-33.97165048 36.770287 -17.96114296 17.50706912 0 0 Z " fill="#F6B457" transform="translate(210,92)"/>
<path d="M0 0 C4.63781003 3.47237068 7.45691376 8.26136629 9.26953125 13.69921875 C9.30907359 16.032217 9.31354857 18.36630064 9.26953125 20.69921875 C10.25953125 20.78171875 11.24953125 20.86421875 12.26953125 20.94921875 C20.46267685 22.14336143 25.778008 26.5842092 31.01953125 32.76171875 C33.88568475 37.20425667 33.85966545 42.58191221 33.26953125 47.69921875 C30.90926866 55.53358434 25.28604211 60.29508107 18.26953125 64.07421875 C9.96734384 67.47186051 -0.61781622 66.94703326 -8.87890625 63.60546875 C-14.72454235 60.74431353 -18.97327999 56.9739691 -22.73046875 51.69921875 C-24.56147835 46.20618995 -24.80716511 39.86628171 -22.9296875 34.34375 C-19.63955975 28.49840276 -13.922488 23.914401 -7.453125 22.0390625 C-6.88464844 21.92691406 -6.31617188 21.81476563 -5.73046875 21.69921875 C-6.85743918 16.73010509 -6.85743918 16.73010509 -9.73046875 12.69921875 C-13.32725941 13.02248428 -13.32725941 13.02248428 -16.73046875 13.69921875 C-16.900625 14.31410156 -17.07078125 14.92898438 -17.24609375 15.5625 C-19.18872744 22.04139001 -19.18872744 22.04139001 -21.48046875 24.82421875 C-24.90240737 26.15497266 -27.23454812 25.65265165 -30.73046875 24.69921875 C-33.67885412 22.32148861 -33.72640129 20.73408268 -34.16796875 16.94921875 C-33.92026299 11.39648126 -31.86345295 6.98383689 -28.08203125 2.93359375 C-19.56593296 -4.72717589 -10.08596009 -5.5433072 0 0 Z " fill="#FEA1AB" transform="translate(297.73046875,244.30078125)"/>
<path d="M0 0 C4.82736889 3.54172941 7.74408087 7.61176136 8.7734375 13.5546875 C8.95405085 17.78216871 8.81875032 20.70821819 6.7109375 24.41796875 C3.19249041 26.22230059 1.02770111 25.69185883 -2.7265625 24.66796875 C-6.37858796 22.40119433 -6.64865766 18.62028648 -7.7265625 14.66796875 C-8.3865625 14.00796875 -9.0465625 13.34796875 -9.7265625 12.66796875 C-13.32335316 12.99123428 -13.32335316 12.99123428 -16.7265625 13.66796875 C-17.3865625 16.30796875 -18.0465625 18.94796875 -18.7265625 21.66796875 C-17.9015625 21.87421875 -17.0765625 22.08046875 -16.2265625 22.29296875 C-10.11048741 24.69571254 -4.36373995 28.52811242 -1.34765625 34.546875 C0.32913806 40.27328575 -0.01819708 46.32150831 -1.7265625 51.98046875 C-7.20944358 59.34809021 -13.70829566 63.735483 -22.7265625 65.66796875 C-33.02822681 66.94733311 -41.15744705 65.70199919 -49.7265625 59.66796875 C-53.80416395 55.97189726 -57.26521769 51.7516946 -58.09765625 46.1875 C-58.26858474 39.21965043 -57.29444871 34.09035561 -52.7265625 28.66796875 C-47.20281915 24.01324108 -41.12586266 20.2451516 -33.7265625 20.66796875 C-33.8090625 19.51296875 -33.8915625 18.35796875 -33.9765625 17.16796875 C-33.946178 11.43542584 -31.98249724 7.084278 -28.078125 2.90234375 C-19.59726596 -4.72672596 -10.0256972 -5.6453847 0 0 Z " fill="#FEA1AC" transform="translate(174.7265625,244.33203125)"/>
<path d="M0 0 C1.13721497 0.17756836 2.27442993 0.35513672 3.44610596 0.53808594 C7.03318811 1.10017472 10.6181157 1.6748545 14.203125 2.25 C16.65351377 2.63625541 19.10403368 3.02167982 21.5546875 3.40625 C27.52239112 4.34457531 33.48819819 5.29418816 39.453125 6.25 C39.453125 13.51 39.453125 20.77 39.453125 28.25 C30.7322651 29.72091837 22.00949028 31.17887381 13.28320312 32.6171875 C10.95326763 33.0021437 8.62372728 33.38951526 6.29492188 33.78125 C-22.43124896 38.59905643 -22.43124896 38.59905643 -32.55078125 32.75 C-36.36613359 29.88288592 -38.03695133 26.77977102 -39.546875 22.25 C-40.27326111 15.82667139 -40.20003259 10.31669352 -36.27734375 4.9765625 C-26.33644833 -4.94189298 -12.56201581 -2.04391246 0 0 Z " fill="#53616E" transform="translate(152.546875,16.75)"/>
<path d="M0 0 C3.68815902 3.19394572 5.67398972 6.08468963 6.5 10.9375 C6.7595904 17.4272599 6.11955658 21.92977652 2 27 C-6.91667457 33.84403351 -16.83688893 33.77402126 -27.49975586 32.37329102 C-29.40603072 32.09180587 -31.3110519 31.80172212 -33.21484375 31.50390625 C-34.23300674 31.35090561 -35.25116974 31.19790497 -36.30018616 31.04026794 C-39.51382127 30.55521802 -42.72558756 30.05881401 -45.9375 29.5625 C-48.11773318 29.23302598 -50.29807103 28.90424387 -52.47851562 28.57617188 C-54.55738624 28.26103992 -56.63616575 27.94530623 -58.71484375 27.62890625 C-59.68775864 27.48095108 -60.66067352 27.33299591 -61.66307068 27.18055725 C-62.56823929 27.04048752 -63.4734079 26.90041779 -64.40600586 26.75610352 C-65.19889511 26.63396988 -65.99178436 26.51183624 -66.80870056 26.38600159 C-68.89148031 26.01911595 -70.94829733 25.51292567 -73 25 C-73 17.74 -73 10.48 -73 3 C-67.08298498 2.04597013 -61.16528138 1.09670871 -55.24609375 0.15625 C-50.48580477 -0.60014776 -45.72852894 -1.37260053 -40.97265625 -2.15625 C-38.71099165 -2.52116909 -36.44927451 -2.88576275 -34.1875 -3.25 C-33.14674316 -3.42499023 -32.10598633 -3.59998047 -31.03369141 -3.78027344 C-19.93753973 -5.54415874 -9.54243348 -6.91995619 0 0 Z " fill="#52616E" transform="translate(325,20)"/>
<path d="M0 0 C3.78798984 1.80527418 6.12536117 4.57599401 7.8125 8.375 C8.34628886 11.78774079 8.27952647 15.13881488 8.203125 18.5859375 C8.19746521 19.55407379 8.19180542 20.52221008 8.18597412 21.51968384 C8.16367112 24.59696929 8.11348556 27.6730694 8.0625 30.75 C8.04242717 32.84243104 8.02417777 34.93488043 8.0078125 37.02734375 C7.96723594 42.14404776 7.88893345 47.25820487 7.8125 52.375 C-2.0875 52.375 -11.9875 52.375 -22.1875 52.375 C-22.27947424 46.21783546 -22.35906995 40.06306661 -22.40722656 33.90576172 C-22.42730659 31.81258047 -22.4545764 29.71945508 -22.48925781 27.62646484 C-22.53793434 24.61281531 -22.56050512 21.59990927 -22.578125 18.5859375 C-22.59877014 17.65445892 -22.61941528 16.72298035 -22.64068604 15.76327515 C-22.64267617 9.96355212 -21.96884768 6.83398152 -18.1875 2.375 C-12.6910782 -2.41675234 -6.6223372 -2.9187338 0 0 Z " fill="#6A7B8C" transform="translate(229.1875,16.625)"/>
<path d="M0 0 C-0.10284302 0.88764038 -0.10284302 0.88764038 -0.20776367 1.79321289 C-1.13243668 10.6665969 -1.28128068 19.52547896 -1.3125 28.4375 C-1.31611542 29.23181427 -1.31973083 30.02612854 -1.32345581 30.84451294 C-1.3462819 43.33479052 -0.27111778 54.90080532 3 67 C3.3482968 68.66360399 3.68933684 70.32895922 4 72 C-5.02542791 69.7109422 -12.93452801 65.43023721 -18.375 57.6875 C-19.28569323 56.14553078 -20.1616165 54.58244885 -21 53 C-21.4125 52.26265625 -21.825 51.5253125 -22.25 50.765625 C-26.31580855 42.35166009 -26.43020856 32.53098354 -24.1171875 23.5859375 C-20.62151806 14.44163666 -11.0987625 0 0 0 Z " fill="#F9D7CA" transform="translate(74,236)"/>
<path d="M0 0 C8.35419105 2.38691173 15.62125578 7.59191715 20.26171875 15.01953125 C25.86580585 25.9152099 26.63664752 36.76209238 22.97265625 48.50390625 C18.65071226 59.5951601 11.10745803 65.87182381 0.57421875 70.93359375 C-2 72 -2 72 -4 72 C-3.731875 70.845 -3.46375 69.69 -3.1875 68.5 C-2.78904936 66.66723372 -2.39362366 64.83380903 -2 63 C-1.74806885 61.87368164 -1.4961377 60.74736328 -1.23657227 59.58691406 C0.73214739 50.12593771 1.41593023 41.1513195 1.28125 31.49853516 C1.24982122 29.23713607 1.24022522 26.97644103 1.234375 24.71484375 C1.1897472 16.43435832 0.85742062 8.24320194 0 0 Z " fill="#F9C6BA" transform="translate(370,236)"/>
<path d="M0 0 C4.82736889 3.54172941 7.74408087 7.61176136 8.7734375 13.5546875 C8.95405085 17.78216871 8.81875032 20.70821819 6.7109375 24.41796875 C3.19249041 26.22230059 1.02770111 25.69185883 -2.7265625 24.66796875 C-6.37858796 22.40119433 -6.64865766 18.62028648 -7.7265625 14.66796875 C-8.3865625 14.00796875 -9.0465625 13.34796875 -9.7265625 12.66796875 C-13.32335316 12.99123428 -13.32335316 12.99123428 -16.7265625 13.66796875 C-16.89671875 14.28285156 -17.066875 14.89773438 -17.2421875 15.53125 C-19.18482119 22.01014001 -19.18482119 22.01014001 -21.4765625 24.79296875 C-24.89850112 26.12372266 -27.23064187 25.62140165 -30.7265625 24.66796875 C-33.67494787 22.29023861 -33.72249504 20.70283268 -34.1640625 16.91796875 C-33.91635674 11.36523126 -31.8595467 6.95258689 -28.078125 2.90234375 C-19.59726596 -4.72672596 -10.0256972 -5.6453847 0 0 Z " fill="#060505" transform="translate(297.7265625,244.33203125)"/>
<path d="M0 0 C4.82736889 3.54172941 7.74408087 7.61176136 8.7734375 13.5546875 C8.95405085 17.78216871 8.81875032 20.70821819 6.7109375 24.41796875 C3.19249041 26.22230059 1.02770111 25.69185883 -2.7265625 24.66796875 C-6.37858796 22.40119433 -6.64865766 18.62028648 -7.7265625 14.66796875 C-8.3865625 14.00796875 -9.0465625 13.34796875 -9.7265625 12.66796875 C-13.32335316 12.99123428 -13.32335316 12.99123428 -16.7265625 13.66796875 C-16.89671875 14.28285156 -17.066875 14.89773438 -17.2421875 15.53125 C-19.18482119 22.01014001 -19.18482119 22.01014001 -21.4765625 24.79296875 C-24.9359637 26.13829144 -27.20364164 25.69281845 -30.7265625 24.66796875 C-33.23539063 21.9163508 -33.67800695 20.03560361 -34.1640625 16.35546875 C-33.41380124 10.03183816 -31.03423441 5.5511907 -26.2890625 1.29296875 C-18.07305758 -5.08570174 -9.01320275 -5.0752577 0 0 Z " fill="#060504" transform="translate(174.7265625,244.33203125)"/>
<path d="M0 0 C1.216875 0.4125 2.43375 0.825 3.6875 1.25 C7.59606691 2.54671009 11.51121419 3.82041669 15.4375 5.0625 C16.44683594 5.38347656 17.45617187 5.70445312 18.49609375 6.03515625 C22.93923796 7.25863074 27.48097821 8.09619564 32 9 C32.66 20.55 33.32 32.1 34 44 C20.96376957 39.65458986 11.36941419 30.22488031 5.125 18.125 C2.28237136 12.16778281 0.65584742 6.55847423 0 0 Z " fill="#FAB8AB" transform="translate(162,402)"/>
<path d="M0 0 C1.58984375 1.12890625 1.58984375 1.12890625 3.25 2.5 C6.96150848 5.38032809 10.01177272 5.71807386 14.64453125 5.5078125 C17.21622255 4.95338486 18.33344293 4.26061673 20.25 2.5 C23 0 23 0 26.0625 -0.5625 C29.79208883 0.15167658 31.46790888 1.17001581 34 4 C34.87524019 8.02610486 34.26453617 9.58186219 32.0625 13.0625 C26.85720648 18.51224101 21.74252301 21.1896574 14.10986328 21.59375 C5.65594023 21.71896432 -0.26463229 20.18552644 -6.6484375 14.54296875 C-8.98211346 12.09970028 -9.96482209 10.19543286 -10.5625 6.875 C-9.38766372 0.87028125 -5.86769948 -1.03547638 0 0 Z " fill="#050404" transform="translate(212,271)"/>
</svg>
